HIERARCHY
ROOT Hips
{
  OFFSET 5.84602e-005 68.8428 3.50346
  CHANNELS 6 Xposition Yposition Zposition Zrotation Xrotation Yrotation
  JOINT Spine
  {
    OFFSET 0 8.597 -4.6522
    CHANNELS 3 Zrotation Xrotation Yrotation
    JOINT Spine1
    {
      OFFSET 0 7.8454 0.4098
      CHANNELS 3 Zrotation Xrotation Yrotation
      JOINT Spine2
      {
        OFFSET 0 9.7078 -2.1609
        CHANNELS 3 Zrotation Xrotation Yrotation
        JOINT Neck
        {
          OFFSET 0 21.8761 -0.4549
          CHANNELS 3 Zrotation Xrotation Yrotation
          JOINT Head
          {
            OFFSET 0 12.3537 3.3602
            CHANNELS 3 Zrotation Xrotation Yrotation
            End Site
            {
              OFFSET 0.0001 18.9506 0.5657
            }
          }
        }
        JOINT LeftShoulder
        {
          OFFSET 2.2086 21.1115 7.2329
          CHANNELS 3 Zrotation Xrotation Yrotation
          JOINT LeftArm
          {
            OFFSET 13.1193 3.0282 -4.8998
            CHANNELS 3 Zrotation Xrotation Yrotation
            JOINT LeftForeArm
            {
              OFFSET 27.4081 -0.0973053 -0.2375
              CHANNELS 3 Zrotation Xrotation Yrotation
              JOINT LeftHand
              {
                OFFSET 22.8641 0.0662994 -0.1369
                CHANNELS 3 Zrotation Xrotation Yrotation
                JOINT LeftHandIndex1
                {
                  OFFSET 8.8614 0.775009 2.4612
                  CHANNELS 3 Zrotation Xrotation Yrotation
                  JOINT LeftHandIndex2
                  {
                    OFFSET 3.3146 -0.808304 0.5841
                    CHANNELS 3 Zrotation Xrotation Yrotation
                    JOINT LeftHandIndex3
                    {
                      OFFSET 2.2628 -0.552002 0.3989
                      CHANNELS 3 Zrotation Xrotation Yrotation
                      End Site
                      {
                        OFFSET 1.6102 -0.4807 0.2612
                      }
                    }
                  }
                }
                JOINT LeftHandMiddle1
                {
                  OFFSET 8.9937 0.895004 0.2143
                  CHANNELS 3 Zrotation Xrotation Yrotation
                  JOINT LeftHandMiddle2
                  {
                    OFFSET 4.0984 0.0113983 -0.0242
                    CHANNELS 3 Zrotation Xrotation Yrotation
                    JOINT LeftHandMiddle3
                    {
                      OFFSET 2.2716 0.00689697 -0.0138001
                      CHANNELS 3 Zrotation Xrotation Yrotation
                      End Site
                      {
                        OFFSET 2.0404 -0.1441 0.0027
                      }
                    }
                  }
                }
                JOINT LeftHandRing1
                {
                  OFFSET 8.5234 0.597198 -2.0164
                  CHANNELS 3 Zrotation Xrotation Yrotation
                  JOINT LeftHandRing2
                  {
                    OFFSET 3.7188 -0.188293 -0.2328
                    CHANNELS 3 Zrotation Xrotation Yrotation
                    JOINT LeftHandRing3
                    {
                      OFFSET 2.1191 -0.106598 -0.1332
                      CHANNELS 3 Zrotation Xrotation Yrotation
                      End Site
                      {
                        OFFSET 1.8737 -0.2304 -0.0886
                      }
                    }
                  }
                }
                JOINT LeftHandPinky1
                {
                  OFFSET 7.9094 -0.601089 -3.4825
                  CHANNELS 3 Zrotation Xrotation Yrotation
                  JOINT LeftHandPinky2
                  {
                    OFFSET 2.2874 -0.477005 -0.6314
                    CHANNELS 3 Zrotation Xrotation Yrotation
                    JOINT LeftHandPinky3
                    {
                      OFFSET 1.6774 -0.349396 -0.4633
                      CHANNELS 3 Zrotation Xrotation Yrotation
                      End Site
                      {
                        OFFSET 1.4888 -0.4091 -0.3416
                      }
                    }
                  }
                }
                JOINT LeftHandThumb1
                {
                  OFFSET 1.833 -1.3875 1.3896
                  CHANNELS 3 Zrotation Xrotation Yrotation
                  JOINT LeftHandThumb2
                  {
                    OFFSET 3.4129 -1.121 2.5732
                    CHANNELS 3 Zrotation Xrotation Yrotation
                    JOINT LeftHandThumb3
                    {
                      OFFSET 2.2474 -0.804199 1.6192
                      CHANNELS 3 Zrotation Xrotation Yrotation
                      End Site
                      {
                        OFFSET 1.6527 -0.5689 1.1317
                      }
                    }
                  }
                }
              }
            }
          }
        }
        JOINT RightShoulder
        {
          OFFSET -2.2086 21.1115 7.2329
          CHANNELS 3 Zrotation Xrotation Yrotation
          JOINT RightArm
          {
            OFFSET -13.1216 3.0287 -4.9007
            CHANNELS 3 Zrotation Xrotation Yrotation
            JOINT RightForeArm
            {
              OFFSET -27.4081 -0.0973053 -0.2375
              CHANNELS 3 Zrotation Xrotation Yrotation
              JOINT RightHand
              {
                OFFSET -22.8641 0.0664063 -0.1369
                CHANNELS 3 Zrotation Xrotation Yrotation
                JOINT RightHandIndex1
                {
                  OFFSET -8.8614 0.774994 2.4612
                  CHANNELS 3 Zrotation Xrotation Yrotation
                  JOINT RightHandIndex2
                  {
                    OFFSET -3.3146 -0.808304 0.5841
                    CHANNELS 3 Zrotation Xrotation Yrotation
                    JOINT RightHandIndex3
                    {
                      OFFSET -2.2628 -0.552002 0.3989
                      CHANNELS 3 Zrotation Xrotation Yrotation
                      End Site
                      {
                        OFFSET -1.6102 -0.4807 0.2612
                      }
                    }
                  }
                }
                JOINT RightHandMiddle1
                {
                  OFFSET -8.9937 0.894989 0.2143
                  CHANNELS 3 Zrotation Xrotation Yrotation
                  JOINT RightHandMiddle2
                  {
                    OFFSET -4.0984 0.0113983 -0.0242
                    CHANNELS 3 Zrotation Xrotation Yrotation
                    JOINT RightHandMiddle3
                    {
                      OFFSET -2.2716 0.00691223 -0.0138001
                      CHANNELS 3 Zrotation Xrotation Yrotation
                      End Site
                      {
                        OFFSET -2.0404 -0.1441 0.0027
                      }
                    }
                  }
                }
                JOINT RightHandRing1
                {
                  OFFSET -8.5234 0.597198 -2.0164
                  CHANNELS 3 Zrotation Xrotation Yrotation
                  JOINT RightHandRing2
                  {
                    OFFSET -3.7188 -0.188309 -0.2328
                    CHANNELS 3 Zrotation Xrotation Yrotation
                    JOINT RightHandRing3
                    {
                      OFFSET -2.1191 -0.106598 -0.1332
                      CHANNELS 3 Zrotation Xrotation Yrotation
                      End Site
                      {
                        OFFSET -1.8737 -0.2304 -0.0886
                      }
                    }
                  }
                }
                JOINT RightHandPinky1
                {
                  OFFSET -7.9094 -0.601105 -3.4825
                  CHANNELS 3 Zrotation Xrotation Yrotation
                  JOINT RightHandPinky2
                  {
                    OFFSET -2.2874 -0.477005 -0.6314
                    CHANNELS 3 Zrotation Xrotation Yrotation
                    JOINT RightHandPinky3
                    {
                      OFFSET -1.6774 -0.349396 -0.4633
                      CHANNELS 3 Zrotation Xrotation Yrotation
                      End Site
                      {
                        OFFSET -1.4888 -0.4091 -0.3416
                      }
                    }
                  }
                }
                JOINT RightHandThumb1
                {
                  OFFSET -1.833 -1.38751 1.3896
                  CHANNELS 3 Zrotation Xrotation Yrotation
                  JOINT RightHandThumb2
                  {
                    OFFSET -3.41299 -1.12099 2.5732
                    CHANNELS 3 Zrotation Xrotation Yrotation
                    JOINT RightHandThumb3
                    {
                      OFFSET -2.24741 -0.804108 1.6192
                      CHANNELS 3 Zrotation Xrotation Yrotation
                      End Site
                      {
                        OFFSET -1.6527 -0.5689 1.1317
                      }
                    }
                  }
                }
              }
            }
          }
        }
      }
    }
  }
  JOINT RightUpLeg
  {
    OFFSET -9.1966 3.8861 -0.7581
    CHANNELS 3 Zrotation Xrotation Yrotation
    JOINT RightLeg
    {
      OFFSET -0.7359 -41.0265 0
      CHANNELS 3 Zrotation Xrotation Yrotation
      JOINT RightFoot
      {
        OFFSET 0 -40.2855 0
        CHANNELS 3 Zrotation Xrotation Yrotation
        JOINT RightToeBase
        {
          OFFSET 0 -5.6122 11.7359
          CHANNELS 3 Zrotation Xrotation Yrotation
          End Site
          {
            OFFSET 0 0 7.8731
          }
        }
      }
    }
  }
  JOINT LeftUpLeg
  {
    OFFSET 9.1965 3.8864 -0.7581
    CHANNELS 3 Zrotation Xrotation Yrotation
    JOINT LeftLeg
    {
      OFFSET 0.7359 -41.0268 0
      CHANNELS 3 Zrotation Xrotation Yrotation
      JOINT LeftFoot
      {
        OFFSET 0 -40.2855 0
        CHANNELS 3 Zrotation Xrotation Yrotation
        JOINT LeftToeBase
        {
          OFFSET 0 -5.6122 11.7359
          CHANNELS 3 Zrotation Xrotation Yrotation
          End Site
          {
            OFFSET 0 0 7.8731
          }
        }
      }
    }
  }
}
MOTION
Frames:	5
Frame Time:	0.0333333
5.84602e-005 68.8428 3.50346 0 0 -0 0 0 -0 0 0 -0 0 0 -0 0 0 -0 0 0 -0 0 0 -0 0 0 -0 0 0 -0 0 0 -0 0 0 -0 0 0 -0 0 0 -0 0 0 -0 -0.0146107 -8.87603e-005 -2.63497e-007 2.99804e-018 -2.42657e-020 -1.42182e-022 0 0 -0 -0.0187562 -0.001176 5.858e-005 5.06224e-018 3.88251e-019 1.21329e-020 0 0 -0 -0.012269 -0.00324817 0.000675346 -1.74678e-018 3.88251e-019 -0 0 0 -0 0 0 -0 0 0 -0 0 0 -0 0 0 -0 0 0 -0 0 0 -0 0 0 -0 0 0 -0 0 0 -0 0 0 -0 0.0149955 -9.10982e-005 2.64101e-007 -9.69331e-018 1.21329e-020 -4.7394e-023 0 0 -0 0.0189956 -0.00119102 -5.96516e-005 -5.41541e-019 0 2.42657e-020 0 0 -0 0.0122698 -0.00324857 -0.000673756 -2.00796e-019 0 -1.94126e-019 0 0 -0 0 0 -0 0 0 -0 3.39842 1.33031 -0.0637918 -5.65207e-008 0.834868 -0.000436188 -3.39935 -2.16518 -0.0642563 -8.89002e-024 -1.18485e-023 -1.48106e-024 -3.39844 1.35642 0.0640283 -3.18788e-007 0.782166 -0.000588827 3.39931 -2.13858 0.0634662 1.1399e-023 0 -0 
2.36234 69.7837 14.9757 -1.68792 -1.59183 133.31 -0.368723 1.37736 -0.187446 -0.733252 2.75589 -0.366039 -0.733251 2.75589 -0.366045 0.122225 0.192339 -0.009624 0.0512785 0.0620289 0.0135794 -11.1 -13.7889 -15.6651 -9.27143 -16.5003 -39.153 -27.3993 20.1483 -46.9312 -16.7783 -13.849 11.1318 1.11184e-006 1.90607e-006 -4.70523e-007 1.49925e-006 -4.42111e-007 -6.27798e-007 1.27163e-006 6.50313e-007 4.02653e-007 1.11184e-006 1.90607e-006 -4.70523e-007 -0.0146053 -8.66944e-005 -1.26886e-006 3.18055e-015 0 1.59028e-015 1.11184e-006 1.90607e-006 -4.70523e-007 -0.0186956 -0.00116886 6.0497e-005 1.26903e-006 6.50084e-007 4.02754e-007 1.11184e-006 1.90607e-006 -4.70523e-007 -0.0121401 -0.00321207 0.000667039 -1.59028e-015 1.27222e-014 1.59028e-015 1.11184e-006 1.90607e-006 -4.70523e-007 1.49925e-006 -4.42111e-007 -6.27798e-007 1.27163e-006 6.50313e-007 4.02653e-007 1.27584 0.122225 -0.497701 50.9408 5.60913 21.3517 16.3439 4.45733 17.4121 -1.31031 1.59944 3.11857 -2.29707e-006 1.34383e-006 1.32626e-008 4.33905e-007 9.58721e-007 1.60629e-006 4.82116e-008 1.06525e-007 1.78477e-007 -2.29707e-006 1.34383e-006 1.32626e-008 0.0149686 -9.23571e-005 1.09697e-006 4.82125e-008 1.06548e-007 1.78463e-007 -2.29707e-006 1.34383e-006 1.32626e-008 0.0189237 -0.00118225 -5.91559e-005 4.82143e-008 1.06554e-007 1.78458e-007 -2.29707e-006 1.34383e-006 1.32626e-008 0.0122632 -0.00324196 -0.000676702 4.82166e-008 1.06544e-007 1.78464e-007 -2.29707e-006 1.34383e-006 1.32626e-008 4.33905e-007 9.58721e-007 1.60629e-006 4.82116e-008 1.06525e-007 1.78477e-007 175.506 -59.2325 174.53 1.81962 11.4986 -0.767334 -7.40551 -0.190487 -0.101668 -3.18055e-015 -3.18055e-015 -0 -3.01911 -4.58888 0.474667 -1.64909 12.4673 0.711915 8.53139 -1.63631 0.535579 -3.91435e-007 -1.66663e-007 -2.36537e-008 
0.114445 70.0131 21.9591 0.664239 -2.80035 -166.65 -0.526501 2.11056 -0.279788 -1.04374 4.22361 -0.540614 -1.04374 4.22359 -0.540623 0.232837 0.320657 -0.0254553 0.0962585 0.109902 -0.0477382 -18.6116 -19.2621 -23.6101 -19.8832 -17.2504 -57.9182 -31.3417 17.371 -68.5639 -22.6176 -19.64 16.4896 -2.81733e-006 3.81038e-007 -2.20047e-006 -7.21826e-007 2.95319e-007 3.4342e-007 -2.0955e-006 8.5719e-008 -2.54389e-006 -2.81733e-006 3.81038e-007 -2.20047e-006 -0.0145925 -8.49504e-005 1.23987e-006 -2.09566e-006 8.60421e-008 -2.54387e-006 -2.81733e-006 3.81038e-007 -2.20047e-006 -0.0187743 -0.00117402 6.24552e-005 -3.19865e-006 -2.79045e-007 -4.30592e-006 -2.81733e-006 3.81038e-007 -2.20047e-006 -0.0122621 -0.00324215 0.000679784 -9.9187e-007 4.50952e-007 -7.81693e-007 -2.81733e-006 3.81038e-007 -2.20047e-006 -7.21826e-007 2.95319e-007 3.4342e-007 -2.0955e-006 8.5719e-008 -2.54389e-006 1.85132 -0.00865759 -0.66893 72.5415 7.4893 31.0989 22.7694 6.0971 25.2491 -1.88937 2.25883 4.46529 -4.84429e-006 7.02439e-006 3.35807e-006 -9.63456e-007 -3.35281e-006 -6.13627e-007 3.91243e-007 2.6658e-006 1.52743e-006 -4.84429e-006 7.02439e-006 3.35807e-006 0.0149934 -9.52667e-005 -4.16538e-007 3.91048e-007 2.666e-006 1.52708e-006 -4.84429e-006 7.02439e-006 3.35807e-006 0.0189999 -0.00119504 -6.32497e-005 1.58294e-006 9.0102e-007 7.06819e-007 -4.84429e-006 7.02439e-006 3.35807e-006 0.0122868 -0.00325681 -0.000680115 3.91109e-007 2.66601e-006 1.52714e-006 -4.84429e-006 7.02439e-006 3.35807e-006 -9.63456e-007 -3.35281e-006 -6.13627e-007 3.91243e-007 2.6658e-006 1.52743e-006 179.257 -3.71868 179.583 2.61325 18.3968 -1.2406 -9.05705 -0.13179 -0.252796 -2.05169e-007 1.65298e-006 -8.31393e-007 -2.9125 -6.86801 0.699399 -2.5127 18.3445 1.20592 10.9732 -1.84609 0.831774 -4.2071e-007 5.11828e-008 -4.87825e-008 
0.685893 70.0363 19.9197 -7.22175e-015 -1.67381 180 -0.491919 2.20041 -0.255692 -0.975077 4.40291 -0.493 -0.975077 4.40291 -0.493 0.331957 0.385077 -0.0474396 0.135062 0.1436 -0.18397 -16.7264 -18.3652 -22.2256 -17.3713 -17.5879 -53.7891 -30.3378 18.5158 -63.5545 -21.6965 -18.3389 14.8749 -2.36066e-006 3.42856e-007 -2.45124e-006 -1.13761e-006 4.29146e-007 5.48856e-007 -2.27522e-007 8.58292e-008 1.09771e-007 -2.36066e-006 3.42856e-007 -2.45124e-006 -0.014683 -8.71788e-005 -1.12995e-006 -2.27522e-007 8.58151e-008 1.09782e-007 -2.36066e-006 3.42856e-007 -2.45124e-006 -0.0187562 -0.001176 5.91249e-005 -2.27521e-007 8.58113e-008 1.09788e-007 -2.36066e-006 3.42856e-007 -2.45124e-006 -0.0121997 -0.00323381 0.000673133 -2.27519e-007 8.58188e-008 1.09787e-007 -2.36066e-006 3.42856e-007 -2.45124e-006 -1.13761e-006 4.29146e-007 5.48856e-007 -2.27522e-007 8.58292e-008 1.09771e-007 1.72623 -0.392586 -0.513745 67.804 7.12388 28.9242 21.2408 5.69183 23.3376 -1.60967 1.9867 4.03588 -3.14869e-007 -5.38016e-007 5.76312e-007 -3.14869e-007 -5.38016e-007 5.76312e-007 -3.14869e-007 -5.38016e-007 5.76312e-007 -3.14869e-007 -5.38016e-007 5.76312e-007 0.0149922 -8.98056e-005 -2.64126e-006 -3.14881e-007 -5.3794e-007 5.76383e-007 -3.14869e-007 -5.38016e-007 5.76312e-007 0.0189789 -0.00118872 -5.93665e-005 -3.14878e-007 -5.3792e-007 5.76404e-007 -3.14869e-007 -5.38016e-007 5.76312e-007 0.0122773 -0.00325052 -0.000676493 -3.14859e-007 -5.37953e-007 5.76379e-007 -3.14869e-007 -5.38016e-007 5.76312e-007 -3.14869e-007 -5.38016e-007 5.76312e-007 -3.14869e-007 -5.38016e-007 5.76312e-007 178.844 -16.6033 178.778 2.21293 17.9417 -1.09087 -8.62221 -0.673454 -0.278625 5.98446e-007 -4.17961e-006 4.05292e-008 -2.82641 -4.94785 0.654998 -2.44745 16.5566 1.11256 10.4155 -1.43714 0.709833 -1.95756e-015 0 -9.31803e-017 
0.685047 70.0912 19.7071 -7.11332e-015 -0.788849 180 -0.491878 2.40735 -0.253264 -0.974385 4.81678 -0.486458 -0.974385 4.81678 -0.486457 0.433217 0.461317 -0.0684763 0.175091 0.17979 -0.306659 -16.6691 -18.5654 -22.5835 -17.3685 -17.5903 -53.7756 -30.2309 18.3147 -63.1466 -21.9219 -18.2977 14.5624 1.79014e-007 -7.89986e-008 -9.57846e-007 3.27122e-007 -6.66165e-007 -3.74746e-006 -3.98321e-007 -3.8173e-007 -2.52651e-006 1.79014e-007 -7.89986e-008 -9.57846e-007 -0.0146033 -9.29717e-005 9.99154e-007 -3.97401e-007 -3.81402e-007 -2.52656e-006 1.79014e-007 -7.89986e-008 -9.57846e-007 -0.0187699 -0.00117574 5.60551e-005 -3.97162e-007 -3.81242e-007 -2.52657e-006 1.79014e-007 -7.89986e-008 -9.57846e-007 -0.0123826 -0.00327738 0.000681233 -3.97613e-007 -3.81248e-007 -2.52658e-006 1.79014e-007 -7.89986e-008 -9.57846e-007 3.27122e-007 -6.66165e-007 -3.74746e-006 -3.98321e-007 -3.8173e-007 -2.52651e-006 1.72901 -0.730497 -0.417875 67.8039 7.12388 28.9242 21.1241 5.63674 23.2026 -1.48846 1.88341 3.92979 3.14467e-007 5.38181e-007 -5.76414e-007 6.28933e-007 1.07636e-006 -1.15283e-006 -3.18055e-015 6.36111e-015 -6.36111e-015 3.14467e-007 5.38181e-007 -5.76414e-007 0.015003 -9.3163e-005 -2.24333e-006 1.74931e-014 -1.27222e-014 -3.18055e-015 3.14467e-007 5.38181e-007 -5.76414e-007 0.0189803 -0.00118821 -5.97178e-005 -3.18055e-015 6.36111e-015 -3.18055e-015 3.14467e-007 5.38181e-007 -5.76414e-007 0.0122525 -0.00324212 -0.000673395 -1.59028e-015 -3.18055e-015 6.36111e-015 3.14467e-007 5.38181e-007 -5.76414e-007 6.28933e-007 1.07636e-006 -1.15283e-006 -3.18055e-015 6.36111e-015 -6.36111e-015 178.77 -16.7719 178.693 2.03276 19.0565 -1.06289 -8.52828 -1.06766 -0.327314 3.8967e-007 -4.33212e-009 1.81211e-007 -2.77627 -3.75643 0.660998 -2.55451 16.1312 1.13683 10.4434 -1.14188 0.668359 -8.61366e-007 8.59014e-007 3.06537e-008 
